<svg xmlns="http://www.w3.org/2000/svg" xmlns:xlink="http://www.w3.org/1999/xlink" xmlns:lucid="lucid" width="1400" height="951"><g transform="translate(-160 -60)" lucid:page-tab-id="0_0"><path d="M0 0h1870.4v1323.2H0z" fill="#fff"/><path d="M460 100h160v120H460z" stroke="#000" stroke-width="2" fill="#fff"/><use xlink:href="#a" transform="matrix(1,0,0,1,460,100) translate(37.55499999999999 63.15)"/><path d="M920 100h160v120H920z" stroke="#000" stroke-width="2" fill="#fff"/><use xlink:href="#b" transform="matrix(1,0,0,1,920,100) translate(16.154999999999994 63.15)"/><path d="M239.75 119.75c0 10.9-8.84 19.75-19.75 19.75-10.9 0-19.75-8.84-19.75-19.75 0-10.9 8.84-19.75 19.75-19.75 10.9 0 19.75 8.84 19.75 19.75z" stroke="#000" stroke-width="2" fill="#fff"/><path d="M180 100h80v158h-80z" fill="none"/><path d="M220 139.5v55.3l40 63.2m-40-63.2L180 258m0-98.75h80" stroke="#000" stroke-width="2" fill="none"/><use xlink:href="#c" transform="matrix(1,0,0,1,100,258) translate(99.025 14.6)"/><path d="M220 196.67V960" fill="none"/><path d="M220 196.67v10.18m0 10.18v20.35m0 10.18v20.35m0 10.2v20.35m0 10.17v20.36m0 10.18v20.35m0 10.2v20.35m0 10.17v20.36m0 10.18v20.35m0 10.2v20.35m0 10.17v20.36m0 10.18v20.35m0 10.2v20.35m0 10.17v20.36m0 10.18v20.35m0 10.2v20.35m0 10.17v20.36m0 10.18v20.35m0 10.2v20.35m0 10.17v20.36m0 10.18v20.35m0 10.2v20.34m0 10.18v20.36m0 10.18v20.35m0 10.2v20.34m0 10.18V960M220 196.67v-3" stroke="#000" stroke-width="2" fill="none"/><path d="M540 221v779" fill="none"/><path d="M540 221v10m0 9.97v19.98m0 10v19.96m0 10v19.97m0 10v19.96m0 10v19.96m0 9.98v19.98m0 9.98v19.98m0 10v19.96m0 10v19.96m0 10v19.96m0 10v19.96m0 10v19.97m0 9.98v20m0 9.97v19.98m0 10v19.96m0 10v19.97m0 10v19.96m0 10v19.96m0 9.98v19.98m0 9.98v19.98m0 10v19.96m0 10v19.96m0 10v19.96m0 10v19.96m0 10v19.97m0 9.98v10" stroke="#000" stroke-width="2" fill="none"/><path d="M541 221h-2v-1h2z"/><path d="M1000 221v719h80v-40" fill="none"/><path d="M1000 221v10m0 9.98v19.97m0 10v19.97m0 9.98v19.98m0 10v19.97m0 9.98v19.98m0 10v19.97m0 10v19.97m0 10v19.96m0 10v19.97m0 9.98v19.98m0 10v19.97m0 9.98v19.98m0 10v19.96m0 10v19.97m0 9.98v19.97m0 10v19.97m0 9.98v19.98m0 10v19.97m0 9.98v19.98m0 10v19.97m0 10v19.97m0 10v19.96m0 10v19.97m0 9.98V940h10.13m10 0h19.97m9.98 0h19.98m9.94-.05v-19.97m0-10V900" stroke="#000" stroke-width="2" fill="none"/><path d="M1001 221h-2v-1h2z"/><path/><path d="M1340 80h160v120h-160z" stroke="#000" stroke-width="2" fill="#fff"/><use xlink:href="#d" transform="matrix(1,0,0,1,1340,80) translate(13.630000000000004 63.15)"/><path d="M1420 201v759h100v-40" fill="none"/><path d="M1420 201v10m0 9.98v19.98m0 9.98v19.98m0 10v19.97m0 9.98v19.98m0 9.98v19.98m0 10v19.97m0 9.98v19.98m0 9.98v19.98m0 10v19.97m0 9.98v19.98m0 9.98v19.98m0 10v19.97m0 9.98v19.98m0 9.98v19.98m0 10v19.97m0 9.98v19.98m0 9.98v19.98m0 10v19.97m0 9.98v19.98m0 9.98v19.98m0 10v19.97m0 9.98v19.98m0 9.98v19.98m0 10v19.97m0 9.98V960h.16m9.98 0h19.98m10 0h19.97m9.98 0h19.98m9.94-.04v-19.98m0-10V920" stroke="#000" stroke-width="2" fill="none"/><path d="M1421 201h-2v-1h2z"/><path/><path d="M220 292.66h149.5v-.44h131.26" stroke="#000" stroke-width="2" fill="none"/><path d="M515.76 292.22l-14.26 4.64v-9.28z"/><path d="M519 292.22l-18.5 6v-12zm-16.5 3.26l10.03-3.26-10.03-3.26z"/><use xlink:href="#e" transform="matrix(1,0,0,1,338.2636303679071,266.62022222222225) translate(0 14.4)"/><use xlink:href="#f" transform="matrix(1,0,0,1,338.2636303679071,266.62022222222225) translate(51.95 14.4)"/><path d="M520 260h40v680h-40z" stroke="#000" stroke-width="2" fill="#fff"/><path d="M1500 880h40v40h-40z" fill="none"/><path d="M1504 884l32 32m0-32l-32 32" stroke="#000" stroke-width="8" fill="none"/><path d="M1060 860h40v40h-40z" fill="none"/><path d="M1064 864l32 32m0-32l-32 32" stroke="#000" stroke-width="8" fill="none"/><path d="M720 100h160v120H720z" stroke="#000" stroke-width="2" fill="#fff"/><use xlink:href="#g" transform="matrix(1,0,0,1,720,100) translate(49.08 63.15)"/><path d="M800 221v779" fill="none"/><path d="M800 221v10m0 9.97v19.98m0 10v19.96m0 10v19.97m0 10v19.96m0 10v19.96m0 9.98v19.98m0 9.98v19.98m0 10v19.96m0 10v19.96m0 10v19.96m0 10v19.96m0 10v19.97m0 9.98v20m0 9.97v19.98m0 10v19.96m0 10v19.97m0 10v19.96m0 10v19.96m0 9.98v19.98m0 9.98v19.98m0 10v19.96m0 10v19.96m0 10v19.96m0 10v19.96m0 10v19.97m0 9.98v10" stroke="#000" stroke-width="2" fill="none"/><path d="M801 221h-2v-1h2z"/><path d="M560 300h109.5v1.33h91.26" stroke="#000" stroke-width="2" fill="none"/><path d="M775.76 301.33l-14.26 4.64v-9.27z"/><path d="M779 301.33l-18.5 6.02v-12.03zm-16.5 3.26l10.03-3.27-10.03-3.26z"/><use xlink:href="#h" transform="matrix(1,0,0,1,626.5896767484942,274.4047739505513) translate(0 14.4)"/><use xlink:href="#i" transform="matrix(1,0,0,1,626.5896767484942,274.4047739505513) translate(43 14.4)"/><use xlink:href="#j" transform="matrix(1,0,0,1,626.5896767484942,274.4047739505513) translate(63 14.4)"/><path d="M780 280h40v660h-40zM980 340h40v540h-40z" stroke="#000" stroke-width="2" fill="#fff"/><path d="M220 359.33h280.76" stroke="#000" stroke-width="2" fill="none"/><path d="M515.76 359.33l-14.26 4.64v-9.27z"/><path d="M519 359.33l-18.5 6.02v-12.03zm-16.5 3.26l10.03-3.27-10.03-3.26z"/><use xlink:href="#k" transform="matrix(1,0,0,1,302.65004074609624,333.73133667051786) translate(0 14.4)"/><use xlink:href="#l" transform="matrix(1,0,0,1,302.65004074609624,333.73133667051786) translate(39.9 14.4)"/><use xlink:href="#m" transform="matrix(1,0,0,1,302.65004074609624,333.73133667051786) translate(80.8 14.4)"/><path d="M519 458H238.24" stroke="#000" stroke-width="2" fill="none"/><path d="M520 459h-1v-2h1z"/><path d="M223.24 458l14.26-4.64v9.27z" stroke="#000" stroke-width="2"/><use xlink:href="#n" transform="matrix(1,0,0,1,332.1302287879248,432.4) translate(0 14.4)"/><use xlink:href="#m" transform="matrix(1,0,0,1,332.1302287879248,432.4) translate(60.900000000000006 14.4)"/><path d="M979 410.44H839.24" stroke="#000" stroke-width="2" fill="none"/><path d="M980 411.44h-1v-2h1zM838.5 415.08l-14.26-4.64 14.26-4.63z"/><path d="M839.5 416.46l-18.5-6.02 18.5-6zm-12.03-6.02l10.03 3.26v-6.5z"/><use xlink:href="#o" transform="matrix(1,0,0,1,848.625,384.8444444444443) translate(0 14.4)"/><use xlink:href="#p" transform="matrix(1,0,0,1,848.625,384.8444444444443) translate(38.95 14.4)"/><use xlink:href="#j" transform="matrix(1,0,0,1,848.625,384.8444444444443) translate(79.85 14.4)"/><path d="M779 418H579.24" fill="none"/><path d="M779 418h-3m-4 0h-5.98m-4 0h-6m-4 0h-5.98m-4 0h-6m-3.98 0h-6m-4 0h-6m-3.98 0h-6m-4 0h-5.98m-4 0h-6m-4 0h-5.98m-4 0h-6m-3.98 0h-6m-4 0h-5.98m-4 0h-6m-4 0h-5.98m-4 0h-6m-3.98 0h-6m-4 0h-5.98m-4 0h-6m-4 0h-2.98" stroke="#000" stroke-width="2" fill="none"/><path d="M780 419h-1v-2h1zM578.5 422.64L564.24 418l14.26-4.64z"/><path d="M579.5 424l-18.5-6 18.5-6zm-12.03-6l10.03 3.26v-6.52z"/><use xlink:href="#q" transform="matrix(1,0,0,1,591.8652933832711,392.4) translate(0 14.4)"/><use xlink:href="#m" transform="matrix(1,0,0,1,591.8652933832711,392.4) translate(66.9 14.4)"/><path d="M561 375.33h399.76" stroke="#000" stroke-width="2" fill="none"/><path d="M561 376.33h-1v-2h1zM975.76 375.33l-14.26 4.64v-9.27z"/><path d="M979 375.33l-18.5 6.02v-12.03zm-16.5 3.26l10.03-3.27-10.03-3.26z"/><use xlink:href="#r" transform="matrix(1,0,0,1,632.3277777777779,349.7333333333333) translate(0 14.4)"/><use xlink:href="#m" transform="matrix(1,0,0,1,632.3277777777779,349.7333333333333) translate(30 14.4)"/><path d="M1400 560h40v300h-40z" stroke="#000" stroke-width="2" fill="#fff"/><path d="M220 519.33h149.5v.67h131.26" stroke="#000" stroke-width="2" fill="none"/><path d="M515.76 520l-14.26 4.64v-9.28z"/><path d="M519 520l-18.5 6v-12zm-16.5 3.26l10.03-3.26-10.03-3.26z"/><use xlink:href="#k" transform="matrix(1,0,0,1,306.1392789027203,493.73255974068064) translate(0 14.4)"/><use xlink:href="#s" transform="matrix(1,0,0,1,306.1392789027203,493.73255974068064) translate(39.9 14.4)"/><use xlink:href="#f" transform="matrix(1,0,0,1,306.1392789027203,493.73255974068064) translate(73.85 14.4)"/><path d="M519 559.33H238.24" stroke="#000" stroke-width="2" fill="none"/><path d="M520 560.33h-1v-2h1z"/><path d="M223.24 559.33l14.26-4.63v9.27z" stroke="#000" stroke-width="2"/><use xlink:href="#t" transform="matrix(1,0,0,1,303.025,533.7313333333336) translate(0 14.4)"/><use xlink:href="#u" transform="matrix(1,0,0,1,303.025,533.7313333333336) translate(64.95 14.4)"/><path d="M220 602h149.5v-1.33h131.26" fill="none"/><path d="M220 602h3.02m4.03 0h6.05m4.03 0h6.04m4.03 0h6.05m4.03 0h6.04m4.03 0h6.05m4.03 0h6.04m4.03 0h6.05m4.03 0h6.04m4.03 0h6.05m4.03 0h6.04m4.03 0h6.05m4.03 0h6.04m4.03 0H354m4.03 0h6.04m4.03 0h1.4v-1.33h3.3m4.04 0h6.05m4.02 0h6.04m4.03 0h6.04m4.03 0h6.04m4.04 0h6.05m4.02 0h6.04m4.03 0h6.04m4.03 0h6.04m4.04 0h6.05m4.02 0h6.04m4.03 0h6.04m4.03 0h6.04m4.04 0h3.02" stroke="#000" stroke-width="2" fill="none"/><path d="M515.76 600.67l-14.26 4.63v-9.27z"/><path d="M519 600.67l-18.5 6v-12.02zm-16.5 3.26l10.03-3.26-10.03-3.26z"/><use xlink:href="#v" transform="matrix(1,0,0,1,312.49380544412594,575.0696098583576) translate(0 14.4)"/><use xlink:href="#u" transform="matrix(1,0,0,1,312.49380544412594,575.0696098583576) translate(45.95 14.4)"/><path d="M1399 641.1H839.24" stroke="#000" stroke-width="2" fill="none"/><path d="M1400 642.1h-1v-2h1zM838.5 645.75l-14.26-4.64 14.26-4.62z"/><path d="M839.5 647.12l-18.5-6 18.5-6.02zm-12.03-6l10.03 3.25v-6.52z"/><use xlink:href="#h" transform="matrix(1,0,0,1,1097.6819669183749,615.511111111111) translate(0 14.4)"/><use xlink:href="#w" transform="matrix(1,0,0,1,1097.6819669183749,615.511111111111) translate(43 14.4)"/><use xlink:href="#i" transform="matrix(1,0,0,1,1097.6819669183749,615.511111111111) translate(116 14.4)"/><use xlink:href="#j" transform="matrix(1,0,0,1,1097.6819669183749,615.511111111111) translate(136 14.4)"/><path d="M560 600h820.76" stroke="#000" stroke-width="2" fill="none"/><path d="M1395.76 600l-14.26 4.64v-9.28z"/><path d="M1399 600l-18.5 6v-12zm-16.5 3.26l10.03-3.26-10.03-3.26z"/><use xlink:href="#x" transform="matrix(1,0,0,1,852.6361111111113,574.4000000000001) translate(0 14.4)"/><use xlink:href="#u" transform="matrix(1,0,0,1,852.6361111111113,574.4000000000001) translate(48.95 14.4)"/><path d="M779 686.9H579.24" fill="none"/><path d="M779 686.9h-3m-4 0h-5.98m-4 0h-6m-4 0h-5.98m-4 0h-6m-3.98 0h-6m-4 0h-6m-3.98 0h-6m-4 0h-5.98m-4 0h-6m-4 0h-5.98m-4 0h-6m-3.98 0h-6m-4 0h-5.98m-4 0h-6m-4 0h-5.98m-4 0h-6m-3.98 0h-6m-4 0h-5.98m-4 0h-6m-4 0h-2.98" stroke="#000" stroke-width="2" fill="none"/><path d="M780 687.9h-1v-2h1zM578.5 691.52l-14.26-4.63 14.26-4.65z"/><path d="M579.5 692.9l-18.5-6 18.5-6.02zm-12.03-6l10.03 3.25v-6.52z"/><use xlink:href="#y" transform="matrix(1,0,0,1,575.1,661.2888888888889) translate(0 14.4)"/><use xlink:href="#z" transform="matrix(1,0,0,1,575.1,661.2888888888889) translate(70 14.4)"/><use xlink:href="#m" transform="matrix(1,0,0,1,575.1,661.2888888888889) translate(136.9 14.4)"/><path d="M519 714H369.5v2.66H238.24" stroke="#000" stroke-width="2" fill="none"/><path d="M520 715h-1v-2h1z"/><path d="M223.24 716.66l14.26-4.63v9.27z" stroke="#000" stroke-width="2"/><use xlink:href="#A" transform="matrix(1,0,0,1,259.53888888888883,688.4000000000001) translate(0 14.4)"/><use xlink:href="#B" transform="matrix(1,0,0,1,259.53888888888883,688.4000000000001) translate(60.900000000000006 14.4)"/><use xlink:href="#z" transform="matrix(1,0,0,1,259.53888888888883,688.4000000000001) translate(130.9 14.4)"/><use xlink:href="#m" transform="matrix(1,0,0,1,259.53888888888883,688.4000000000001) translate(197.8 14.4)"/><path d="M220 760h280.76" stroke="#000" stroke-width="2" fill="none"/><path d="M515.76 760l-14.26 4.64v-9.28z"/><path d="M519 760l-18.5 6v-12zm-16.5 3.26l10.03-3.26-10.03-3.26z"/><g><use xlink:href="#k" transform="matrix(1,0,0,1,296.125,734.4) translate(0 14.4)"/><use xlink:href="#C" transform="matrix(1,0,0,1,296.125,734.4) translate(39.9 14.4)"/><use xlink:href="#f" transform="matrix(1,0,0,1,296.125,734.4) translate(93.85 14.4)"/></g><path d="M561 774h819.76" stroke="#000" stroke-width="2" fill="none"/><path d="M561 775h-1v-2h1zM1395.76 774l-14.26 4.64v-9.28z"/><path d="M1399 774l-18.5 6v-12zm-16.5 3.26l10.03-3.26-10.03-3.26z"/><g><use xlink:href="#D" transform="matrix(1,0,0,1,847.4638888888887,748.4000000000001) translate(0 14.4)"/><use xlink:href="#f" transform="matrix(1,0,0,1,847.4638888888887,748.4000000000001) translate(53.95 14.4)"/></g><path d="M1399 822H839.24" stroke="#000" stroke-width="2" fill="none"/><path d="M1400 823h-1v-2h1zM838.5 826.64L824.24 822l14.26-4.64z"/><path d="M839.5 828l-18.5-6 18.5-6zm-12.03-6l10.03 3.26v-6.52z"/><g><use xlink:href="#D" transform="matrix(1,0,0,1,1111.347222222222,796.4000000000001) translate(0 14.4)"/><use xlink:href="#p" transform="matrix(1,0,0,1,1111.347222222222,796.4000000000001) translate(53.95 14.4)"/><use xlink:href="#j" transform="matrix(1,0,0,1,1111.347222222222,796.4000000000001) translate(94.85 14.4)"/></g><path d="M779 866H579.24" fill="none"/><path d="M779 866h-3m-4 0h-5.98m-4 0h-6m-4 0h-5.98m-4 0h-6m-3.98 0h-6m-4 0h-6m-3.98 0h-6m-4 0h-5.98m-4 0h-6m-4 0h-5.98m-4 0h-6m-3.98 0h-6m-4 0h-5.98m-4 0h-6m-4 0h-5.98m-4 0h-6m-3.98 0h-6m-4 0h-5.98m-4 0h-6m-4 0h-2.98" stroke="#000" stroke-width="2" fill="none"/><path d="M780 867h-1v-2h1zM578.5 870.64L564.24 866l14.26-4.64z"/><path d="M579.5 872l-18.5-6 18.5-6zm-12.03-6l10.03 3.26v-6.52z"/><g><use xlink:href="#y" transform="matrix(1,0,0,1,575.1,840.4) translate(0 14.4)"/><use xlink:href="#z" transform="matrix(1,0,0,1,575.1,840.4) translate(70 14.4)"/><use xlink:href="#m" transform="matrix(1,0,0,1,575.1,840.4) translate(136.9 14.4)"/></g><path d="M519 860.67H238.24" stroke="#000" stroke-width="2" fill="none"/><path d="M520 861.67h-1v-2h1z"/><path d="M223.24 860.66l14.26-4.63v9.27z" stroke="#000" stroke-width="2"/><g><use xlink:href="#A" transform="matrix(1,0,0,1,244.1500229496092,835.0646677217052) translate(0 14.4)"/><use xlink:href="#B" transform="matrix(1,0,0,1,244.1500229496092,835.0646677217052) translate(60.900000000000006 14.4)"/><use xlink:href="#z" transform="matrix(1,0,0,1,244.1500229496092,835.0646677217052) translate(130.9 14.4)"/><use xlink:href="#m" transform="matrix(1,0,0,1,244.1500229496092,835.0646677217052) translate(197.8 14.4)"/></g><defs><path d="M63-220v92h138v28H63V0H30v-248h175v28H63" id="E"/><path d="M100-194c63 0 86 42 84 106H49c0 40 14 67 53 68 26 1 43-12 49-29l28 8c-11 28-37 45-77 45C44 4 14-33 15-96c1-61 26-98 85-98zm52 81c6-60-76-77-97-28-3 7-6 17-6 28h103" id="F"/><path d="M24 0v-261h32V0H24" id="G"/><path d="M135-143c-3-34-86-38-87 0 15 53 115 12 119 90S17 21 10-45l28-5c4 36 97 45 98 0-10-56-113-15-118-90-4-57 82-63 122-42 12 7 21 19 24 35" id="H"/><path d="M160-131c35 5 61 23 61 61C221 17 115-2 30 0v-248c76 3 177-17 177 60 0 33-19 50-47 57zm-97-11c50-1 110 9 110-42 0-47-63-36-110-37v79zm0 115c55-2 124 14 124-45 0-56-70-42-124-44v89" id="I"/><path d="M100-194c62-1 85 37 85 99 1 63-27 99-86 99S16-35 15-95c0-66 28-99 85-99zM99-20c44 1 53-31 53-75 0-43-8-75-51-75s-53 32-53 75 10 74 51 75" id="J"/><path d="M143 0L79-87 56-68V0H24v-261h32v163l83-92h37l-77 82L181 0h-38" id="K"/><g id="a"><use transform="matrix(0.05,0,0,0.05,0,0)" xlink:href="#E"/><use transform="matrix(0.05,0,0,0.05,10.950000000000001,0)" xlink:href="#F"/><use transform="matrix(0.05,0,0,0.05,20.950000000000003,0)" xlink:href="#F"/><use transform="matrix(0.05,0,0,0.05,30.950000000000003,0)" xlink:href="#G"/><use transform="matrix(0.05,0,0,0.05,34.900000000000006,0)" xlink:href="#H"/><use transform="matrix(0.05,0,0,0.05,43.900000000000006,0)" xlink:href="#I"/><use transform="matrix(0.05,0,0,0.05,55.900000000000006,0)" xlink:href="#J"/><use transform="matrix(0.05,0,0,0.05,65.9,0)" xlink:href="#J"/><use transform="matrix(0.05,0,0,0.05,75.9,0)" xlink:href="#K"/><path d="M-.9 1.25h86.7v1.32H-.9z"/></g><path d="M197 0v-115H63V0H30v-248h33v105h134v-105h34V0h-34" id="L"/><path d="M24-231v-30h32v30H24zM24 0v-190h32V0H24" id="M"/><path d="M59-47c-2 24 18 29 38 22v24C64 9 27 4 27-40v-127H5v-23h24l9-43h21v43h35v23H59v120" id="N"/><path d="M114-163C36-179 61-72 57 0H25l-1-190h30c1 12-1 29 2 39 6-27 23-49 58-41v29" id="O"/><path d="M179-190L93 31C79 59 56 82 12 73V49c39 6 53-20 64-50L1-190h34L92-34l54-156h33" id="P"/><path d="M30 0v-248h33v221h125V0H30" id="Q"/><g id="b"><use transform="matrix(0.05,0,0,0.05,0,0)" xlink:href="#E"/><use transform="matrix(0.05,0,0,0.05,10.950000000000001,0)" xlink:href="#F"/><use transform="matrix(0.05,0,0,0.05,20.950000000000003,0)" xlink:href="#F"/><use transform="matrix(0.05,0,0,0.05,30.950000000000003,0)" xlink:href="#G"/><use transform="matrix(0.05,0,0,0.05,34.900000000000006,0)" xlink:href="#H"/><use transform="matrix(0.05,0,0,0.05,43.900000000000006,0)" xlink:href="#L"/><use transform="matrix(0.05,0,0,0.05,56.85,0)" xlink:href="#M"/><use transform="matrix(0.05,0,0,0.05,60.80000000000001,0)" xlink:href="#H"/><use transform="matrix(0.05,0,0,0.05,69.80000000000001,0)" xlink:href="#N"/><use transform="matrix(0.05,0,0,0.05,74.80000000000001,0)" xlink:href="#J"/><use transform="matrix(0.05,0,0,0.05,84.80000000000001,0)" xlink:href="#O"/><use transform="matrix(0.05,0,0,0.05,90.75000000000001,0)" xlink:href="#P"/><use transform="matrix(0.05,0,0,0.05,99.75000000000001,0)" xlink:href="#Q"/><use transform="matrix(0.05,0,0,0.05,109.75,0)" xlink:href="#M"/><use transform="matrix(0.05,0,0,0.05,113.7,0)" xlink:href="#H"/><use transform="matrix(0.05,0,0,0.05,122.7,0)" xlink:href="#N"/><path d="M-.9 1.25h129.5v1.32H-.9z"/></g><path d="M205 0l-28-72H64L36 0H1l101-248h38L239 0h-34zm-38-99l-47-123c-12 45-31 82-46 123h93" id="R"/><path d="M96-169c-40 0-48 33-48 73s9 75 48 75c24 0 41-14 43-38l32 2c-6 37-31 61-74 61-59 0-76-41-82-99-10-93 101-131 147-64 4 7 5 14 7 22l-32 3c-4-21-16-35-41-35" id="S"/><g id="c"><use transform="matrix(0.05,0,0,0.05,0,0)" xlink:href="#R"/><use transform="matrix(0.05,0,0,0.05,12,0)" xlink:href="#S"/><use transform="matrix(0.05,0,0,0.05,21,0)" xlink:href="#N"/><use transform="matrix(0.05,0,0,0.05,26,0)" xlink:href="#J"/><use transform="matrix(0.05,0,0,0.05,36,0)" xlink:href="#O"/></g><path d="M30 0v-248h187v28H63v79h144v27H63v87h162V0H30" id="T"/><path d="M85-194c31 0 48 13 60 33l-1-100h32l1 261h-30c-2-10 0-23-3-31C134-8 116 4 85 4 32 4 16-35 15-94c0-66 23-100 70-100zm9 24c-40 0-46 34-46 75 0 40 6 74 45 74 42 0 51-32 51-76 0-42-9-74-50-73" id="U"/><path d="M0 4l72-265h28L28 4H0" id="V"/><path d="M30-248c118-7 216 8 213 122C240-48 200 0 122 0H30v-248zM63-27c89 8 146-16 146-99s-60-101-146-95v194" id="W"/><path d="M-5 72V49h209v23H-5" id="X"/><g id="d"><use transform="matrix(0.05,0,0,0.05,0,0)" xlink:href="#T"/><use transform="matrix(0.05,0,0,0.05,12,0)" xlink:href="#U"/><use transform="matrix(0.05,0,0,0.05,22,0)" xlink:href="#M"/><use transform="matrix(0.05,0,0,0.05,25.950000000000003,0)" xlink:href="#N"/><use transform="matrix(0.05,0,0,0.05,30.950000000000003,0)" xlink:href="#V"/><use transform="matrix(0.05,0,0,0.05,35.95,0)" xlink:href="#W"/><use transform="matrix(0.05,0,0,0.05,48.900000000000006,0)" xlink:href="#F"/><use transform="matrix(0.05,0,0,0.05,58.900000000000006,0)" xlink:href="#G"/><use transform="matrix(0.05,0,0,0.05,62.85,0)" xlink:href="#F"/><use transform="matrix(0.05,0,0,0.05,72.85000000000001,0)" xlink:href="#N"/><use transform="matrix(0.05,0,0,0.05,77.85000000000001,0)" xlink:href="#F"/><use transform="matrix(0.05,0,0,0.05,87.85000000000001,0)" xlink:href="#X"/><use transform="matrix(0.05,0,0,0.05,97.85000000000001,0)" xlink:href="#E"/><use transform="matrix(0.05,0,0,0.05,108.80000000000001,0)" xlink:href="#F"/><use transform="matrix(0.05,0,0,0.05,118.80000000000001,0)" xlink:href="#F"/><use transform="matrix(0.05,0,0,0.05,128.8,0)" xlink:href="#G"/><path d="M-.9 1.25h134.55v1.32H-.9z"/></g><g id="e"><use transform="matrix(0.05,0,0,0.05,0,0)" xlink:href="#H"/><use transform="matrix(0.05,0,0,0.05,9,0)" xlink:href="#F"/><use transform="matrix(0.05,0,0,0.05,19,0)" xlink:href="#G"/><use transform="matrix(0.05,0,0,0.05,22.95,0)" xlink:href="#F"/><use transform="matrix(0.05,0,0,0.05,32.95,0)" xlink:href="#S"/><use transform="matrix(0.05,0,0,0.05,41.95,0)" xlink:href="#N"/></g><path d="M101-234c-31-9-42 10-38 44h38v23H63V0H32v-167H5v-23h27c-7-52 17-82 69-68v24" id="Y"/><path d="M117-194c89-4 53 116 60 194h-32v-121c0-31-8-49-39-48C34-167 62-67 57 0H25l-1-190h30c1 10-1 24 2 32 11-22 29-35 61-36" id="Z"/><path d="M177-190C167-65 218 103 67 71c-23-6-38-20-44-43l32-5c15 47 100 32 89-28v-30C133-14 115 1 83 1 29 1 15-40 15-95c0-56 16-97 71-98 29-1 48 16 59 35 1-10 0-23 2-32h30zM94-22c36 0 50-32 50-73 0-42-14-75-50-75-39 0-46 34-46 75s6 73 46 73" id="aa"/><g id="f"><use transform="matrix(0.05,0,0,0.05,0,0)" xlink:href="#Y"/><use transform="matrix(0.05,0,0,0.05,5,0)" xlink:href="#F"/><use transform="matrix(0.05,0,0,0.05,15,0)" xlink:href="#F"/><use transform="matrix(0.05,0,0,0.05,25,0)" xlink:href="#G"/><use transform="matrix(0.05,0,0,0.05,28.950000000000003,0)" xlink:href="#M"/><use transform="matrix(0.05,0,0,0.05,32.9,0)" xlink:href="#Z"/><use transform="matrix(0.05,0,0,0.05,42.9,0)" xlink:href="#aa"/></g><path d="M33 0v-38h34V0H33" id="ab"/><path d="M141-36C126-15 110 5 73 4 37 3 15-17 15-53c-1-64 63-63 125-63 3-35-9-54-41-54-24 1-41 7-42 31l-33-3c5-37 33-52 76-52 45 0 72 20 72 64v82c-1 20 7 32 28 27v20c-31 9-61-2-59-35zM48-53c0 20 12 33 32 33 41-3 63-29 60-74-43 2-92-5-92 41" id="ac"/><path d="M108 0H70L1-190h34L89-25l56-165h34" id="ad"/><g id="g"><use transform="matrix(0.05,0,0,0.05,0,0)" xlink:href="#E"/><use transform="matrix(0.05,0,0,0.05,10.950000000000001,0)" xlink:href="#M"/><use transform="matrix(0.05,0,0,0.05,14.9,0)" xlink:href="#G"/><use transform="matrix(0.05,0,0,0.05,18.85,0)" xlink:href="#F"/><use transform="matrix(0.05,0,0,0.05,28.85,0)" xlink:href="#ab"/><use transform="matrix(0.05,0,0,0.05,33.85,0)" xlink:href="#H"/><use transform="matrix(0.05,0,0,0.05,42.85,0)" xlink:href="#ac"/><use transform="matrix(0.05,0,0,0.05,52.85,0)" xlink:href="#ad"/><path d="M-.9 1.25h63.65v1.32H-.9z"/></g><g id="h"><use transform="matrix(0.05,0,0,0.05,0,0)" xlink:href="#H"/><use transform="matrix(0.05,0,0,0.05,9,0)" xlink:href="#ac"/><use transform="matrix(0.05,0,0,0.05,19,0)" xlink:href="#ad"/><use transform="matrix(0.05,0,0,0.05,28,0)" xlink:href="#F"/></g><g id="i"><use transform="matrix(0.05,0,0,0.05,0,0)" xlink:href="#N"/><use transform="matrix(0.05,0,0,0.05,5,0)" xlink:href="#J"/></g><g id="j"><use transform="matrix(0.05,0,0,0.05,0,0)" xlink:href="#Y"/><use transform="matrix(0.05,0,0,0.05,5,0)" xlink:href="#M"/><use transform="matrix(0.05,0,0,0.05,8.95,0)" xlink:href="#G"/><use transform="matrix(0.05,0,0,0.05,12.899999999999999,0)" xlink:href="#F"/></g><g id="k"><use transform="matrix(0.05,0,0,0.05,0,0)" xlink:href="#S"/><use transform="matrix(0.05,0,0,0.05,9,0)" xlink:href="#G"/><use transform="matrix(0.05,0,0,0.05,12.949999999999998,0)" xlink:href="#M"/><use transform="matrix(0.05,0,0,0.05,16.9,0)" xlink:href="#S"/><use transform="matrix(0.05,0,0,0.05,25.899999999999995,0)" xlink:href="#K"/></g><path d="M206 0h-36l-40-164L89 0H53L-1-190h32L70-26l43-164h34l41 164 42-164h31" id="ae"/><g id="l"><use transform="matrix(0.05,0,0,0.05,0,0)" xlink:href="#ad"/><use transform="matrix(0.05,0,0,0.05,9,0)" xlink:href="#M"/><use transform="matrix(0.05,0,0,0.05,12.949999999999998,0)" xlink:href="#F"/><use transform="matrix(0.05,0,0,0.05,22.95,0)" xlink:href="#ae"/></g><path d="M106-169C34-169 62-67 57 0H25v-261h32l-1 103c12-21 28-36 61-36 89 0 53 116 60 194h-32v-121c2-32-8-49-39-48" id="af"/><g id="m"><use transform="matrix(0.05,0,0,0.05,0,0)" xlink:href="#af"/><use transform="matrix(0.05,0,0,0.05,10,0)" xlink:href="#M"/><use transform="matrix(0.05,0,0,0.05,13.949999999999998,0)" xlink:href="#H"/><use transform="matrix(0.05,0,0,0.05,22.95,0)" xlink:href="#N"/><use transform="matrix(0.05,0,0,0.05,27.950000000000003,0)" xlink:href="#J"/><use transform="matrix(0.05,0,0,0.05,37.95,0)" xlink:href="#O"/><use transform="matrix(0.05,0,0,0.05,43.900000000000006,0)" xlink:href="#P"/></g><path d="M115-194c55 1 70 41 70 98S169 2 115 4C84 4 66-9 55-30l1 105H24l-1-265h31l2 30c10-21 28-34 59-34zm-8 174c40 0 45-34 45-75s-6-73-45-74c-42 0-51 32-51 76 0 43 10 73 51 73" id="ag"/><g id="n"><use transform="matrix(0.05,0,0,0.05,0,0)" xlink:href="#U"/><use transform="matrix(0.05,0,0,0.05,10,0)" xlink:href="#M"/><use transform="matrix(0.05,0,0,0.05,13.949999999999998,0)" xlink:href="#H"/><use transform="matrix(0.05,0,0,0.05,22.95,0)" xlink:href="#ag"/><use transform="matrix(0.05,0,0,0.05,32.95,0)" xlink:href="#G"/><use transform="matrix(0.05,0,0,0.05,36.900000000000006,0)" xlink:href="#ac"/><use transform="matrix(0.05,0,0,0.05,46.900000000000006,0)" xlink:href="#P"/></g><g id="o"><use transform="matrix(0.05,0,0,0.05,0,0)" xlink:href="#G"/><use transform="matrix(0.05,0,0,0.05,3.95,0)" xlink:href="#J"/><use transform="matrix(0.05,0,0,0.05,13.949999999999998,0)" xlink:href="#ac"/><use transform="matrix(0.05,0,0,0.05,23.95,0)" xlink:href="#U"/></g><path d="M210-169c-67 3-38 105-44 169h-31v-121c0-29-5-50-35-48C34-165 62-65 56 0H25l-1-190h30c1 10-1 24 2 32 10-44 99-50 107 0 11-21 27-35 58-36 85-2 47 119 55 194h-31v-121c0-29-5-49-35-48" id="ah"/><g id="p"><use transform="matrix(0.05,0,0,0.05,0,0)" xlink:href="#Y"/><use transform="matrix(0.05,0,0,0.05,5,0)" xlink:href="#O"/><use transform="matrix(0.05,0,0,0.05,10.95,0)" xlink:href="#J"/><use transform="matrix(0.05,0,0,0.05,20.95,0)" xlink:href="#ah"/></g><g id="q"><use transform="matrix(0.05,0,0,0.05,0,0)" xlink:href="#Y"/><use transform="matrix(0.05,0,0,0.05,5,0)" xlink:href="#F"/><use transform="matrix(0.05,0,0,0.05,15,0)" xlink:href="#F"/><use transform="matrix(0.05,0,0,0.05,25,0)" xlink:href="#G"/><use transform="matrix(0.05,0,0,0.05,28.950000000000003,0)" xlink:href="#M"/><use transform="matrix(0.05,0,0,0.05,32.9,0)" xlink:href="#Z"/><use transform="matrix(0.05,0,0,0.05,42.9,0)" xlink:href="#aa"/><use transform="matrix(0.05,0,0,0.05,52.900000000000006,0)" xlink:href="#H"/></g><g id="r"><use transform="matrix(0.05,0,0,0.05,0,0)" xlink:href="#aa"/><use transform="matrix(0.05,0,0,0.05,10,0)" xlink:href="#F"/><use transform="matrix(0.05,0,0,0.05,20,0)" xlink:href="#N"/></g><g id="s"><use transform="matrix(0.05,0,0,0.05,0,0)" xlink:href="#F"/><use transform="matrix(0.05,0,0,0.05,10,0)" xlink:href="#U"/><use transform="matrix(0.05,0,0,0.05,20,0)" xlink:href="#M"/><use transform="matrix(0.05,0,0,0.05,23.95,0)" xlink:href="#N"/></g><path d="M145-31C134-9 116 4 85 4 32 4 16-35 15-94c0-59 17-99 70-100 32-1 48 14 60 33 0-11-1-24 2-32h30l-1 268h-32zM93-21c41 0 51-33 51-76s-8-73-50-73c-40 0-46 35-46 75s5 74 45 74" id="ai"/><path d="M84 4C-5 8 30-112 23-190h32v120c0 31 7 50 39 49 72-2 45-101 50-169h31l1 190h-30c-1-10 1-25-2-33-11 22-28 36-60 37" id="aj"/><g id="t"><use transform="matrix(0.05,0,0,0.05,0,0)" xlink:href="#O"/><use transform="matrix(0.05,0,0,0.05,5.95,0)" xlink:href="#F"/><use transform="matrix(0.05,0,0,0.05,15.949999999999998,0)" xlink:href="#ai"/><use transform="matrix(0.05,0,0,0.05,25.950000000000003,0)" xlink:href="#aj"/><use transform="matrix(0.05,0,0,0.05,35.95,0)" xlink:href="#F"/><use transform="matrix(0.05,0,0,0.05,45.95,0)" xlink:href="#H"/><use transform="matrix(0.05,0,0,0.05,54.95,0)" xlink:href="#N"/></g><g id="u"><use transform="matrix(0.05,0,0,0.05,0,0)" xlink:href="#S"/><use transform="matrix(0.05,0,0,0.05,9,0)" xlink:href="#af"/><use transform="matrix(0.05,0,0,0.05,19,0)" xlink:href="#ac"/><use transform="matrix(0.05,0,0,0.05,29,0)" xlink:href="#Z"/><use transform="matrix(0.05,0,0,0.05,39,0)" xlink:href="#aa"/><use transform="matrix(0.05,0,0,0.05,49,0)" xlink:href="#F"/><use transform="matrix(0.05,0,0,0.05,59,0)" xlink:href="#H"/></g><g id="v"><use transform="matrix(0.05,0,0,0.05,0,0)" xlink:href="#F"/><use transform="matrix(0.05,0,0,0.05,10,0)" xlink:href="#Z"/><use transform="matrix(0.05,0,0,0.05,20,0)" xlink:href="#N"/><use transform="matrix(0.05,0,0,0.05,25,0)" xlink:href="#F"/><use transform="matrix(0.05,0,0,0.05,35,0)" xlink:href="#O"/></g><g id="w"><use transform="matrix(0.05,0,0,0.05,0,0)" xlink:href="#S"/><use transform="matrix(0.05,0,0,0.05,9,0)" xlink:href="#af"/><use transform="matrix(0.05,0,0,0.05,19,0)" xlink:href="#ac"/><use transform="matrix(0.05,0,0,0.05,29,0)" xlink:href="#Z"/><use transform="matrix(0.05,0,0,0.05,39,0)" xlink:href="#aa"/><use transform="matrix(0.05,0,0,0.05,49,0)" xlink:href="#F"/><use transform="matrix(0.05,0,0,0.05,59,0)" xlink:href="#H"/></g><g id="x"><use transform="matrix(0.05,0,0,0.05,0,0)" xlink:href="#ah"/><use transform="matrix(0.05,0,0,0.05,14.950000000000001,0)" xlink:href="#ac"/><use transform="matrix(0.05,0,0,0.05,24.950000000000003,0)" xlink:href="#K"/><use transform="matrix(0.05,0,0,0.05,33.95,0)" xlink:href="#F"/></g><g id="y"><use transform="matrix(0.05,0,0,0.05,0,0)" xlink:href="#aj"/><use transform="matrix(0.05,0,0,0.05,10,0)" xlink:href="#ag"/><use transform="matrix(0.05,0,0,0.05,20,0)" xlink:href="#U"/><use transform="matrix(0.05,0,0,0.05,30,0)" xlink:href="#ac"/><use transform="matrix(0.05,0,0,0.05,40,0)" xlink:href="#N"/><use transform="matrix(0.05,0,0,0.05,45,0)" xlink:href="#F"/><use transform="matrix(0.05,0,0,0.05,55,0)" xlink:href="#U"/></g><g id="z"><use transform="matrix(0.05,0,0,0.05,0,0)" xlink:href="#Y"/><use transform="matrix(0.05,0,0,0.05,5,0)" xlink:href="#F"/><use transform="matrix(0.05,0,0,0.05,15,0)" xlink:href="#F"/><use transform="matrix(0.05,0,0,0.05,25,0)" xlink:href="#G"/><use transform="matrix(0.05,0,0,0.05,28.950000000000003,0)" xlink:href="#M"/><use transform="matrix(0.05,0,0,0.05,32.9,0)" xlink:href="#Z"/><use transform="matrix(0.05,0,0,0.05,42.9,0)" xlink:href="#aa"/><use transform="matrix(0.05,0,0,0.05,52.900000000000006,0)" xlink:href="#H"/></g><g id="A"><use transform="matrix(0.05,0,0,0.05,0,0)" xlink:href="#U"/><use transform="matrix(0.05,0,0,0.05,10,0)" xlink:href="#M"/><use transform="matrix(0.05,0,0,0.05,13.949999999999998,0)" xlink:href="#H"/><use transform="matrix(0.05,0,0,0.05,22.95,0)" xlink:href="#ag"/><use transform="matrix(0.05,0,0,0.05,32.95,0)" xlink:href="#ac"/><use transform="matrix(0.05,0,0,0.05,42.95,0)" xlink:href="#G"/><use transform="matrix(0.05,0,0,0.05,46.900000000000006,0)" xlink:href="#P"/></g><g id="B"><use transform="matrix(0.05,0,0,0.05,0,0)" xlink:href="#aj"/><use transform="matrix(0.05,0,0,0.05,10,0)" xlink:href="#ag"/><use transform="matrix(0.05,0,0,0.05,20,0)" xlink:href="#U"/><use transform="matrix(0.05,0,0,0.05,30,0)" xlink:href="#ac"/><use transform="matrix(0.05,0,0,0.05,40,0)" xlink:href="#N"/><use transform="matrix(0.05,0,0,0.05,45,0)" xlink:href="#F"/><use transform="matrix(0.05,0,0,0.05,55,0)" xlink:href="#U"/></g><g id="C"><use transform="matrix(0.05,0,0,0.05,0,0)" xlink:href="#U"/><use transform="matrix(0.05,0,0,0.05,10,0)" xlink:href="#F"/><use transform="matrix(0.05,0,0,0.05,20,0)" xlink:href="#G"/><use transform="matrix(0.05,0,0,0.05,23.95,0)" xlink:href="#F"/><use transform="matrix(0.05,0,0,0.05,33.95,0)" xlink:href="#N"/><use transform="matrix(0.05,0,0,0.05,38.95,0)" xlink:href="#F"/></g><g id="D"><use transform="matrix(0.05,0,0,0.05,0,0)" xlink:href="#U"/><use transform="matrix(0.05,0,0,0.05,10,0)" xlink:href="#F"/><use transform="matrix(0.05,0,0,0.05,20,0)" xlink:href="#G"/><use transform="matrix(0.05,0,0,0.05,23.95,0)" xlink:href="#F"/><use transform="matrix(0.05,0,0,0.05,33.95,0)" xlink:href="#N"/><use transform="matrix(0.05,0,0,0.05,38.95,0)" xlink:href="#F"/></g></defs></g></svg>